<svg id="svg" version="1.1" xmlns="http://www.w3.org/2000/svg" viewBox="0 0 358 214" style="display: block;"><path d="M0,0 L358,0 L358,214 L0,214 Z " transform="translate(0,0)" style="fill: #1e667e;"/><path d="M0,0 L29,0 L53,4 L69,9 L85,16 L96,22 L109,32 L118,41 L125,51 L132,65 L134,72 L135,80 L135,92 L133,101 L129,112 L121,123 L114,130 L105,136 L95,140 L89,141 L75,141 L74,139 L66,136 L57,129 L52,123 L52,121 L49,121 L53,128 L60,135 L69,140 L73,141 L71,147 L64,155 L55,162 L39,169 L20,173 L0,173 L-11,172 L-25,180 L-40,185 L-46,186 L-64,186 L-77,182 L-88,175 L-95,166 L-99,157 L-102,146 L-103,137 L-112,128 L-119,114 L-121,107 L-121,92 L-119,80 L-114,67 L-106,54 L-97,43 L-85,32 L-70,22 L-54,14 L-36,7 L-19,3 Z " transform="translate(169,15)" style="fill: #e7807c;"/><path d="M0,0 L5,1 L7,3 L6,10 L3,11 L3,48 L-4,55 L-2,59 L14,75 L22,77 L23,84 L20,87 L15,87 L12,83 L10,77 L-7,60 L-11,62 L-21,72 L-21,74 L-13,81 L-3,91 L-3,93 L3,92 L6,94 L6,101 L3,103 L-2,103 L-4,101 L-6,94 L-24,76 L-31,82 L-34,85 L-82,85 L-84,89 L-91,88 L-92,81 L-89,78 L-83,79 L-82,82 L-35,81 L-2,48 L-1,10 L-3,10 L-4,3 Z " transform="translate(200,38)" style="fill: #0a1128;"/><path d="M0,0 L5,0 L8,3 L10,10 L20,20 L20,49 L7,62 L6,69 L4,71 L-2,71 L-5,68 L-4,62 L-1,60 L5,58 L15,48 L15,21 L6,12 L-1,10 L-3,8 L-2,1 Z " transform="translate(262,61)" style="fill: #0a1128;"/><path d="M0,0 L7,1 L8,8 L5,11 L-2,13 L-25,36 L-55,37 L-57,39 L-63,39 L-66,36 L-65,30 L-63,29 L-57,29 L-55,31 L-25,31 L-3,9 L-3,3 Z " transform="translate(180,61)" style="fill: #0a1128;"/><path d="M0,0 L6,0 L8,2 L9,9 L20,20 L20,49 L7,62 L5,69 L4,70 L-2,70 L-4,68 L-4,62 L-2,60 L5,59 L13,51 L15,48 L17,48 L16,21 L7,12 L0,10 L-2,8 L-2,2 Z " transform="translate(238,61)" style="fill: #0a1128;"/><path d="M0,0 L6,1 L7,4 L62,3 L65,0 L71,1 L73,4 L72,9 L70,11 L64,11 L62,7 L8,8 L5,11 L-1,11 L-3,9 L-3,3 Z " transform="translate(91,146)" style="fill: #0a1128;"/><path d="M0,0 L5,0 L8,3 L36,3 L39,0 L44,0 L47,3 L47,8 L44,11 L37,10 L36,8 L8,8 L5,11 L0,11 L-3,8 L-3,3 Z " transform="translate(114,42)" style="fill: #0a1128;"/><path d="M0,0 L6,0 L8,4 L37,4 L39,0 L45,0 L48,3 L47,9 L44,11 L39,10 L37,8 L8,7 L7,10 L1,11 L-2,8 L-2,2 Z " transform="translate(90,170)" style="fill: #0a1128;"/><path d="M0,0 L6,0 L8,2 L8,8 L6,10 L-1,11 L-18,28 L-19,35 L-22,37 L-28,36 L-29,35 L-29,28 L-27,26 L-20,25 L-4,9 L-2,1 Z " transform="translate(88,79)" style="fill: #0a1128;"/></svg>