<?xml version="1.0" standalone="no"?>
<!DOCTYPE svg PUBLIC "-//W3C//DTD SVG 20010904//EN"
 "http://www.w3.org/TR/2001/REC-SVG-20010904/DTD/svg10.dtd">
<svg version="1.0" xmlns="http://www.w3.org/2000/svg"
 width="680.000000pt" height="680.000000pt" viewBox="0 0 680.000000 680.000000"
 preserveAspectRatio="xMidYMid meet">

<g transform="translate(0.000000,680.000000) scale(0.100000,-0.100000)"
fill="#000000" stroke="none">
<path d="M4268 6763 c-28 -7 -109 -148 -181 -313 -206 -476 -247 -980 -123
-1501 29 -122 89 -290 152 -427 24 -52 43 -97 40 -99 -2 -2 -22 -1 -44 3 -28
4 -43 13 -47 25 -10 30 -62 67 -105 74 -31 5 -50 2 -83 -14 -65 -33 -82 -63
-82 -146 0 -100 -15 -117 -123 -137 -139 -27 -260 -100 -333 -202 l-29 -39
-74 154 -74 154 48 215 c27 118 89 395 138 615 50 220 93 411 97 425 9 36 -27
80 -64 80 -59 0 -47 42 -221 -740 -28 -124 -55 -243 -60 -265 -27 -109 -70
-319 -70 -340 0 -13 38 -102 85 -199 47 -97 86 -182 87 -188 2 -9 -25 -15 -92
-20 -53 -3 -136 -14 -186 -22 l-91 -16 -80 82 c-43 46 -114 120 -158 166 -43
45 -89 85 -101 88 -14 4 -77 -17 -175 -59 -85 -36 -246 -104 -357 -151 l-204
-86 -236 35 c-588 88 -619 91 -642 70 -28 -26 -27 -80 3 -99 12 -9 100 -26
197 -40 455 -65 598 -87 633 -98 49 -15 -15 -39 641 240 l108 46 108 -114 108
-115 -102 -36 c-258 -91 -466 -206 -662 -365 l-53 -43 -88 9 c-48 5 -180 16
-292 25 l-204 17 -22 -24 c-14 -14 -50 -106 -95 -238 -40 -118 -101 -300 -136
-404 -36 -104 -66 -191 -67 -193 -4 -3 -76 -29 -585 -214 -243 -88 -285 -106
-293 -126 -12 -32 -2 -71 21 -83 36 -19 -16 -36 705 225 215 77 251 94 262
116 7 14 71 198 143 409 71 211 132 385 134 388 5 5 285 -15 348 -24 l38 -6
-73 -86 c-99 -118 -126 -153 -184 -247 -114 -184 -180 -331 -251 -560 -52
-168 -62 -218 -62 -320 0 -275 140 -544 375 -718 160 -118 317 -177 496 -185
142 -6 211 6 387 64 286 93 567 256 780 451 46 41 86 73 89 69 9 -8 42 -420
35 -427 -4 -4 -81 -32 -172 -62 -438 -148 -635 -218 -646 -229 -6 -7 -36 -83
-67 -168 -31 -85 -103 -287 -161 -448 -58 -161 -106 -298 -106 -305 0 -7 7
-23 16 -35 17 -25 70 -30 96 -9 12 10 155 392 288 774 31 88 33 91 73 107 23
8 184 63 357 121 447 151 449 152 457 183 10 41 -36 573 -52 598 -12 19 -8 27
47 95 88 107 201 281 262 406 55 110 126 281 126 302 0 6 3 11 8 11 4 -1 59
-51 123 -113 l117 -112 -150 -354 c-128 -303 -148 -357 -139 -377 6 -13 31
-166 57 -341 25 -175 52 -358 59 -406 8 -56 20 -96 31 -108 24 -27 72 -22 95
11 18 24 18 31 -21 295 -23 149 -50 340 -62 425 l-21 155 146 349 c81 192 147
360 147 374 0 27 -18 46 -237 254 l-103 96 20 99 c11 54 25 138 32 186 l13 88
183 -91 c101 -49 190 -90 198 -90 9 0 142 29 297 64 606 137 825 186 897 201
112 23 136 33 149 61 13 29 -1 69 -31 87 -18 12 -12 13 -443 -85 -143 -32
-300 -68 -350 -78 -49 -11 -180 -40 -289 -65 -110 -25 -205 -45 -212 -45 -17
0 -314 143 -314 152 0 3 23 23 51 44 118 86 199 250 199 402 0 50 4 63 21 76
16 11 28 12 50 4 68 -24 159 29 179 103 16 59 -1 107 -55 156 -37 33 -45 47
-45 75 l0 34 93 -44 c211 -101 463 -177 692 -207 191 -25 516 -20 705 11 66
11 305 73 375 97 114 40 229 92 350 157 128 70 152 98 121 145 -30 46 -54 42
-187 -29 -231 -122 -425 -190 -679 -237 -110 -21 -155 -24 -375 -24 -219 0
-265 3 -370 23 -248 47 -453 117 -652 223 -66 34 -125 59 -143 59 -26 0 -30 4
-30 28 0 15 -33 92 -73 172 -115 229 -190 468 -222 710 -19 143 -19 440 -1
581 36 267 131 548 266 788 28 49 50 96 50 105 0 21 -44 66 -62 65 -7 -1 -21
-3 -30 -6z"/>
</g>
</svg>
