<?xml version="1.0" standalone="no"?>
<!DOCTYPE svg PUBLIC "-//W3C//DTD SVG 20010904//EN"
 "http://www.w3.org/TR/2001/REC-SVG-20010904/DTD/svg10.dtd">
<svg version="1.0" xmlns="http://www.w3.org/2000/svg"
 width="323.000000pt" height="178.000000pt" viewBox="0 0 323.000000 178.000000"
 preserveAspectRatio="xMidYMid meet">

<g transform="translate(0.000000,178.000000) scale(0.100000,-0.100000)"
fill="#000000" stroke="none">
<path d="M0 890 l0 -890 1615 0 1615 0 0 890 0 890 -1615 0 -1615 0 0 -890z
m1499 410 c28 -5 81 -21 117 -36 l65 -26 46 22 c276 129 615 -17 715 -309 30
-87 32 -239 4 -321 -39 -118 -106 -208 -204 -274 -155 -104 -341 -122 -504
-49 l-58 26 -58 -26 c-170 -76 -368 -53 -524 62 -77 57 -140 143 -177 241 -35
92 -36 246 -3 342 83 239 341 394 581 348z" fill="none"/>
<path d="M1314 1255 c-178 -39 -321 -173 -366 -344 -73 -280 105 -554 391
-603 82 -14 181 -2 255 30 l47 21 -47 43 c-106 97 -164 230 -166 378 -1 148
44 262 147 367 l63 65 -34 14 c-103 43 -187 52 -290 29z" fill="#000000"/>
<path d="M1880 1263 c-31 -5 -119 -33 -141 -44 -13 -7 -4 -20 47 -72 102 -105
146 -214 145 -365 0 -149 -57 -282 -165 -380 l-47 -43 45 -20 c225 -99 507 9
615 236 68 143 66 284 -6 435 -79 165 -311 284 -493 253z"/>
<path d="M1660 1172 c0 -4 43 -50 95 -102 52 -52 95 -91 95 -87 0 38 -139 197
-172 197 -10 0 -18 -3 -18 -8z"/>
<path d="M1594 1114 l-17 -25 154 -155 c84 -85 157 -154 160 -154 4 0 4 21 2
48 -5 45 -11 53 -136 180 -73 72 -135 132 -139 132 -4 0 -15 -12 -24 -26z"/>
<path d="M1526 1023 c-14 -27 -13 -28 158 -204 94 -97 176 -177 181 -178 6 -1
14 15 18 36 l8 37 -168 168 c-92 92 -171 168 -175 168 -4 0 -14 -12 -22 -27z"/>
<path d="M1487 934 c-2 -5 -8 -22 -11 -39 -6 -28 4 -40 168 -204 l174 -174 17
33 17 33 -180 180 c-99 98 -182 175 -185 171z"/>
<path d="M1464 753 c6 -45 14 -56 143 -185 l137 -138 23 28 22 27 -157 158
c-86 86 -161 157 -166 157 -5 0 -6 -21 -2 -47z"/>
<path d="M1524 552 c28 -56 140 -176 159 -169 25 8 12 27 -84 122 l-101 100
26 -53z"/>
</g>
</svg>
