<?xml version="1.0" standalone="no"?>
<!DOCTYPE svg PUBLIC "-//W3C//DTD SVG 20010904//EN"
 "http://www.w3.org/TR/2001/REC-SVG-20010904/DTD/svg10.dtd">
<svg version="1.0" xmlns="http://www.w3.org/2000/svg"
 width="591.000000pt" height="590.000000pt" viewBox="0 0 591.000000 590.000000"
 preserveAspectRatio="xMidYMid meet">

<g transform="translate(0.000000,590.000000) scale(0.100000,-0.100000)"
fill="#000000" stroke="none">
<path d="M5633 4535 c-331 -74 -582 -168 -963 -361 -431 -217 -772 -435 -1540
-984 -745 -533 -1102 -763 -1485 -961 -376 -194 -724 -314 -1060 -365 -119
-18 -390 -24 -512 -11 l-73 7 0 -191 0 -192 208 6 c525 17 996 140 1539 402
469 227 808 443 1680 1073 609 440 1153 783 1513 955 396 189 663 278 903 302
l67 7 0 184 c0 169 -1 184 -17 183 -10 0 -127 -25 -260 -54z"/>
</g>
</svg>
