<?xml version="1.0" standalone="no"?>
<!DOCTYPE svg PUBLIC "-//W3C//DTD SVG 20010904//EN"
 "http://www.w3.org/TR/2001/REC-SVG-20010904/DTD/svg10.dtd">
<svg version="1.0" xmlns="http://www.w3.org/2000/svg"
 width="484.000000pt" height="496.000000pt" viewBox="0 0 484.000000 496.000000"
 preserveAspectRatio="xMidYMid meet">

<g transform="translate(0.000000,496.000000) scale(0.100000,-0.100000)"
fill="#000000" stroke="none">
<path d="M2563 3391 c-26 -21 -84 -76 -128 -121 -112 -115 -293 -281 -405
-373 -119 -96 -135 -121 -120 -179 45 -168 204 -211 397 -108 76 41 229 152
344 251 37 33 74 59 80 59 21 0 149 -80 249 -156 130 -97 283 -239 481 -443
128 -132 172 -171 191 -171 29 0 48 14 228 165 72 61 162 132 198 158 80 57
94 74 86 101 -11 37 -366 770 -386 799 -11 15 -25 27 -33 27 -7 0 -58 -23
-112 -50 -101 -52 -200 -80 -284 -80 -83 0 -232 31 -364 77 -202 69 -255 83
-316 83 -51 0 -62 -4 -106 -39z"/>
<path d="M1057 3368 c-33 -44 -39 -56 -160 -333 -58 -132 -132 -298 -166 -370
l-60 -129 47 -26 c94 -51 168 -107 258 -192 50 -49 96 -88 102 -88 5 0 68 56
139 124 71 68 139 129 151 135 32 17 85 13 147 -10 64 -24 103 -69 130 -150
l17 -49 48 6 c41 5 59 2 113 -24 78 -36 93 -56 136 -174 9 -25 11 -26 51 -16
104 27 213 -38 255 -152 l21 -55 52 3 c69 5 152 -34 187 -87 29 -43 60 -160
52 -193 -4 -13 -68 -85 -143 -162 -75 -76 -132 -142 -127 -146 4 -5 27 -15 51
-23 43 -15 87 -11 127 11 36 19 104 96 120 136 14 33 19 37 38 30 100 -35 226
41 243 147 l6 38 88 -6 c81 -5 90 -4 137 21 54 30 99 88 109 143 l6 34 62 -6
c91 -10 165 26 202 97 23 44 21 155 -4 203 -31 62 -138 181 -274 306 -123 114
-443 376 -485 398 -19 9 -31 2 -115 -70 -116 -99 -247 -190 -335 -232 -62 -29
-76 -32 -168 -32 -87 0 -106 3 -148 25 -58 29 -121 95 -148 153 -21 47 -25
123 -8 160 6 13 99 107 207 208 296 276 357 338 346 349 -5 5 -37 15 -69 21
-105 19 -302 -8 -551 -77 -71 -19 -151 -38 -179 -41 -87 -9 -225 22 -344 77
-59 28 -115 50 -124 50 -9 0 -27 -15 -40 -32z"/>
<path d="M1373 2404 c-18 -9 -91 -76 -162 -149 -147 -152 -173 -196 -152 -265
14 -46 70 -97 118 -106 57 -11 101 14 201 110 52 50 122 125 155 166 56 70 59
76 54 118 -12 107 -122 171 -214 126z"/>
<path d="M1690 2193 c-34 -12 -74 -46 -171 -143 -121 -123 -169 -189 -169
-237 0 -35 28 -89 60 -116 45 -38 90 -44 143 -18 53 26 307 281 326 328 18 45
7 96 -32 140 -28 32 -82 64 -104 62 -4 0 -28 -8 -53 -16z"/>
<path d="M1978 1981 c-58 -37 -241 -221 -280 -280 -61 -97 -11 -213 100 -228
60 -8 106 23 255 175 167 171 181 205 120 295 -51 73 -119 86 -195 38z"/>
<path d="M2274 1774 c-97 -64 -288 -274 -304 -334 -20 -73 38 -160 118 -176
59 -12 101 13 230 140 146 143 182 192 182 251 0 113 -131 182 -226 119z"/>
</g>
</svg>
