<svg id="svg" version="1.1" xmlns="http://www.w3.org/2000/svg" viewBox="0 0 544 278" style="display: block;"><path d="M0 0 C179.52 0 359.04 0 544 0 C544 91.74 544 183.48 544 278 C364.48 278 184.96 278 0 278 C0 186.26 0 94.52 0 0 Z " transform="translate(0,0)" style="fill: #CD1F51;"/><path d="M0 0 C10.448185 9.01086855 15.30628511 19.5845101 16.50390625 33.1953125 C17.02393364 45.55280539 13.40483202 55.41219695 5.31640625 64.7578125 C-3.57134212 73.86032058 -14.60312652 78.72813363 -27.33203125 78.98046875 C-39.91141153 78.54404127 -50.72008286 74.87063264 -59.78515625 65.91015625 C-69.50337864 54.456537 -72.99171934 41.78535544 -71.78515625 26.91015625 C-69.25271143 15.57517733 -62.83099039 5.54146728 -53.5390625 -1.3671875 C-36.65302197 -11.92994477 -16.11596641 -12.30246383 0 0 Z " transform="translate(118.78515625,98.08984375)" style="fill: #FCF3F6;"/><path d="M0 0 C8.68769424 8.30721128 13.26431128 18.87370322 13.625 30.8125 C13.43841637 37.36958198 12.26071465 42.50297349 9.125 48.25 C8.60486328 49.21099609 8.60486328 49.21099609 8.07421875 50.19140625 C7.0625 51.875 7.0625 51.875 5.125 54.25 C4.135 54.25 3.145 54.25 2.125 54.25 C-0.13671875 51.84375 -0.13671875 51.84375 -2.5625 48.75 C-3.37074219 47.7290625 -4.17898437 46.708125 -5.01171875 45.65625 C-5.62660156 44.8621875 -6.24148437 44.068125 -6.875 43.25 C-4.875 38.25 -4.875 38.25 -3.74609375 35.80078125 C-1.89771049 30.3882509 -2.73084673 24.0829235 -4.8515625 18.83203125 C-7.43263444 14.39425272 -10.33634912 11.76074304 -14.875 9.25 C-15.49761719 8.89421875 -16.12023437 8.5384375 -16.76171875 8.171875 C-20.66901483 6.46739834 -24.70436576 6.70518742 -28.875 7.25 C-31.10328611 8.15880611 -33.05372892 9.18847338 -35.0859375 10.47265625 C-37.52111078 11.53073372 -38.40487355 11.21308179 -40.875 10.25 C-42.98488152 9.11033602 -45.06675521 7.91797243 -47.125 6.6875 C-48.74148437 5.72650391 -48.74148437 5.72650391 -50.390625 4.74609375 C-51.21046875 4.25238281 -52.0303125 3.75867188 -52.875 3.25 C-51.62768984 -0.49193048 -50.47366379 -0.87562494 -47.125 -2.8125 C-46.26390625 -3.31910156 -45.4028125 -3.82570313 -44.515625 -4.34765625 C-30.463313 -11.81034857 -12.53040434 -9.84335921 0 0 Z " transform="translate(116.875,102.75)" style="fill: #CC194D;"/><path d="M0 0 C4.79796571 2.95320332 8.78646315 6.35145786 10.3671875 11.89453125 C11.15218749 18.15627534 11.04824484 23.56334476 7.3671875 28.89453125 C3.1347848 34.09434028 -1.36757987 36.21597151 -7.8671875 37.25 C-13.02937856 37.57931219 -16.63178496 36.51076902 -20.8359375 33.4921875 C-24.9079909 29.87160089 -27.17807145 26.44246966 -28.14453125 21.02734375 C-28.52006755 14.46797642 -27.45452389 9.94256019 -23.38671875 4.7421875 C-17.14448692 -1.83370483 -8.56118368 -3.59468098 0 0 Z " transform="translate(325.6328125,127.10546875)" style="fill: #FDF7F9;"/><path d="M0 0 C2.06338871 3.09508306 2.7734403 5.43641373 3.75 9 C8.33113408 24.11942055 17.21010351 36.05053026 31 44 C39.09964719 48.18333426 46.96886942 50.02405524 56 51 C56 51.66 56 52.32 56 53 C45.10576533 58.7194732 35.30414433 61.24196249 23.08203125 58.296875 C20.56897411 57.37736882 18.33230136 56.30886143 16 55 C14.83210938 54.36384766 14.83210938 54.36384766 13.640625 53.71484375 C5.38195917 48.7402447 -0.59144763 41.00831699 -4 32 C-4.75 28.8125 -4.75 28.8125 -5 25 C-5.07476562 24.0409375 -5.14953125 23.081875 -5.2265625 22.09375 C-5.60830205 13.65529686 -3.78665786 7.50569683 0 0 Z " transform="translate(57,113)" style="fill: #CC164A;"/><path d="M0 0 C4.66220103 3.25269839 8.23182427 7.31696539 9.6875 12.875 C9.6875 15.515 9.6875 18.155 9.6875 20.875 C0.1175 20.875 -9.4525 20.875 -19.3125 20.875 C-17.3248675 25.84408126 -16.7477009 27.27172991 -12.3125 29.875 C-7.24537806 30.51844406 -5.40296846 30.60197897 -1.125 27.75 C-0.196875 27.13125 0.73125 26.5125 1.6875 25.875 C4.5625 26.625 4.5625 26.625 6.6875 27.875 C6.6875 30.875 6.6875 30.875 4.625 32.9375 C-1.00424515 36.65040637 -7.65578274 38.11966166 -14.3125 36.875 C-20.01904643 34.38353832 -24.31465111 30.89284708 -26.72265625 25.078125 C-28.46981265 18.55232228 -28.00037958 12.53281255 -24.65625 6.6328125 C-18.65387307 -1.21913407 -9.12540805 -3.09919519 0 0 Z " transform="translate(216.3125,127.125)" style="fill: #FCF3F5;"/><path d="M0 0 C9.16718857 3.49609828 14.10420898 7.34728852 18.48828125 16.1875 C23.04724795 24.66929851 29.69336632 29.52395921 38 34 C44.1180764 37.42612278 47.95860624 42.36871783 52 48 C52 48.33 52 48.66 52 49 C37.12640802 48.67212523 25.17805761 42.78316698 14.4921875 32.61328125 C6.05676168 23.74634025 0 12.49650142 0 0 Z " transform="translate(63,111)" style="fill: #CC184C;"/><path d="M0 0 C14.19 0 28.38 0 43 0 C43 2.31 43 4.62 43 7 C37.06 7 31.12 7 25 7 C25 22.51 25 38.02 25 54 C22.69 54 20.38 54 18 54 C18 38.49 18 22.98 18 7 C12.06 7 6.12 7 0 7 C0 4.69 0 2.38 0 0 Z " transform="translate(151,109)" style="fill: #FDFAFB;"/><path d="M0 0 C3.01156833 2.07941622 4.04426113 3.5281994 5.625 6.8125 C5.96557617 10.04223633 5.96557617 10.04223633 5.91796875 13.64453125 C5.9034668 15.58295898 5.9034668 15.58295898 5.88867188 17.56054688 C5.86360985 18.9153707 5.83821506 20.27018841 5.8125 21.625 C5.79744013 22.99933445 5.78375401 24.37368468 5.77148438 25.74804688 C5.73616628 29.10326632 5.68683851 32.45768166 5.625 35.8125 C3.315 35.8125 1.005 35.8125 -1.375 35.8125 C-1.39481934 35.04059326 -1.41463867 34.26868652 -1.43505859 33.47338867 C-1.53021143 29.98191042 -1.63993047 26.49103848 -1.75 23 C-1.7809375 21.78505859 -1.811875 20.57011719 -1.84375 19.31835938 C-1.88242187 18.15498047 -1.92109375 16.99160156 -1.9609375 15.79296875 C-1.9923584 14.71942139 -2.0237793 13.64587402 -2.05615234 12.53979492 C-2.19092307 9.5964235 -2.19092307 9.5964235 -4.375 6.8125 C-6.66498397 6.25848049 -6.66498397 6.25848049 -9.25 6.3125 C-10.11367188 6.2815625 -10.97734375 6.250625 -11.8671875 6.21875 C-14.50194467 6.65984348 -14.50194467 6.65984348 -16.6484375 8.57421875 C-19.31855613 13.58220143 -19.05308541 18.53200588 -19.125 24.125 C-19.15464844 25.24712891 -19.18429687 26.36925781 -19.21484375 27.52539062 C-19.28537417 30.28783207 -19.33815493 33.04943774 -19.375 35.8125 C-21.685 35.8125 -23.995 35.8125 -26.375 35.8125 C-26.375 23.9325 -26.375 12.0525 -26.375 -0.1875 C-24.065 -0.1875 -21.755 -0.1875 -19.375 -0.1875 C-19.045 0.8025 -18.715 1.7925 -18.375 2.8125 C-17.570625 2.1525 -16.76625 1.4925 -15.9375 0.8125 C-10.85494472 -2.56385469 -5.55182617 -1.95342032 0 0 Z " transform="translate(371.375,127.1875)" style="fill: #FDF7F8;"/><path d="M0 0 C2.57534399 1.41054146 3.9768963 2.81286087 6 5 C4.25 7.0625 4.25 7.0625 2 9 C-0.39788436 8.78842197 -1.85584361 8.07207819 -4 7 C-7 6.75 -7 6.75 -10 7 C-12.21994138 8.7608488 -12.21994138 8.7608488 -12.05078125 10.96875 C-11.09513833 13.3342814 -11.09513833 13.3342814 -7.98046875 14.34375 C-6.72878906 14.7253125 -5.47710937 15.106875 -4.1875 15.5 C3.95757389 17.99838536 3.95757389 17.99838536 7 22 C7.74390649 27.12468917 7.65345815 28.9621547 4.875 33.375 C0.07104011 37.76122425 -4.50952713 38.41326952 -10.8203125 38.25390625 C-15.16748131 37.74751562 -18.05971483 36.09699936 -20.875 32.8125 C-21.24625 32.214375 -21.6175 31.61625 -22 31 C-20.02 29.68 -18.04 28.36 -16 27 C-15.45859375 27.49113281 -14.9171875 27.98226562 -14.359375 28.48828125 C-11.42758717 30.3667612 -9.69700309 30.31060725 -6.25 30.1875 C-5.26515625 30.16042969 -4.2803125 30.13335937 -3.265625 30.10546875 C-2.14414062 30.05326172 -2.14414062 30.05326172 -1 30 C-1.31963489 27.02884844 -1.31963489 27.02884844 -3 24 C-5.15944692 22.94258488 -7.28752747 22.3476904 -9.60546875 21.71484375 C-13.14611325 20.65784874 -15.90065381 19.00166108 -19 17 C-20.60430264 13.79139471 -20.48105318 10.4809543 -20 7 C-15.6138436 -0.4727109 -8.01523761 -1.20697292 0 0 Z " transform="translate(462,126)" style="fill: #FDF6F8;"/><path d="M0 0 C1.90364978 0.94844963 3.74842441 2.01338924 5.578125 3.09765625 C5.578125 6.09765625 5.578125 6.09765625 4.078125 7.78515625 C3.583125 8.21828125 3.088125 8.65140625 2.578125 9.09765625 C-2.171875 7.22265625 -2.171875 7.22265625 -4.421875 6.09765625 C-9.05741888 5.68560791 -11.72603598 6.22311479 -15.421875 9.09765625 C-18.16582164 13.54573817 -18.16343915 18.02631435 -17.421875 23.09765625 C-16.18777206 26.28001307 -15.31328145 26.90018735 -12.421875 29.09765625 C-7.1912761 30.040879 -2.15904399 29.62414638 2.578125 27.09765625 C3.898125 28.74765625 5.218125 30.39765625 6.578125 32.09765625 C0.00048915 36.6289165 -4.53495708 37.77543826 -12.421875 37.09765625 C-18.41563694 34.94894914 -22.14909942 31.37987453 -25.234375 25.84765625 C-27.03441635 20.16331514 -27.29260027 15.48069382 -25.234375 9.84765625 C-19.34990091 0.91948866 -10.52472913 -3.92131037 0 0 Z " transform="translate(258.421875,126.90234375)" style="fill: #FCF4F6;"/><path d="M0 0 C1.89698812 0.95694766 3.73855239 2.02229609 5.56640625 3.10546875 C5.56640625 4.42546875 5.56640625 5.74546875 5.56640625 7.10546875 C3.37890625 8.29296875 3.37890625 8.29296875 0.56640625 9.10546875 C-1.1264716 8.15051201 -2.79216412 7.14637535 -4.43359375 6.10546875 C-8.3252895 5.70835694 -11.21837238 5.777205 -14.43359375 8.10546875 C-17.81459198 11.96946673 -17.9364717 15.79659489 -17.796875 20.7265625 C-17.28354965 24.0880156 -15.91468934 25.84329336 -13.43359375 28.10546875 C-10.01649357 29.81401884 -6.18557877 29.40510644 -2.43359375 29.10546875 C-1.50546875 28.71359375 -0.57734375 28.32171875 0.37890625 27.91796875 C1.10078125 27.64984375 1.82265625 27.38171875 2.56640625 27.10546875 C4.87890625 28.48046875 4.87890625 28.48046875 6.56640625 30.10546875 C5.56311095 33.33830916 4.54039197 34.12064375 1.56640625 35.85546875 C-4.1188989 38.01564732 -9.94944118 37.91759555 -15.68359375 36.04296875 C-20.10213666 32.92990443 -23.70750374 29.28373879 -25.43359375 24.10546875 C-25.90686331 18.29433922 -26.29357352 12.95773287 -23.80859375 7.60546875 C-17.0936612 0.5371187 -9.8873754 -3.63436431 0 0 Z " transform="translate(430.43359375,126.89453125)" style="fill: #FDF6F8;"/><path d="M0 0 C5.08824504 3.01315069 8.93053339 6.30331891 10.84765625 12.0546875 C11.21473396 17.65262252 11.03410887 21.21600019 7.84765625 26.0546875 C4.84765625 27.0546875 4.84765625 27.0546875 2.61328125 26.0859375 C-5.6818469 21.03672906 -14.14491025 14.79733136 -17.15234375 5.0546875 C-16.20062213 2.25931666 -15.5917298 1.31314988 -13.02734375 -0.1953125 C-8.38718832 -1.40578783 -4.43094802 -1.9460788 0 0 Z " transform="translate(99.15234375,114.9453125)" style="fill: #CC1A4E;"/><path d="M0 0 C3.76115969 2.06495042 7.09650288 4.08725592 9 8 C9.74432493 12.80594985 9.47327727 16.10240518 7.1875 20.4375 C4.88699238 23.13238035 3.27641204 24.81394672 -0.3046875 25.3359375 C-4.57276853 25.40080195 -7.24596584 25.43985326 -11 23.25 C-14.63222043 19.16375201 -15.55504649 15.71505688 -15.45703125 10.32421875 C-14.66087987 6.27541474 -12.13756796 3.56501906 -9 1 C-5.64870516 -0.11709828 -3.51689744 -0.34479387 0 0 Z " transform="translate(320,132)" style="fill: #CF2757;"/><path d="M0 0 C1.98 0 3.96 0 6 0 C6 3.3 6 6.6 6 10 C9.63 10 13.26 10 17 10 C17 11.98 17 13.96 17 16 C13.7 16 10.4 16 7 16 C7.14012137 19.64613696 7.28681398 23.29179789 7.4375 26.9375 C7.47681641 27.97841797 7.51613281 29.01933594 7.55664062 30.09179688 C7.61948242 31.57583008 7.61948242 31.57583008 7.68359375 33.08984375 C7.72025146 34.00628662 7.75690918 34.92272949 7.79467773 35.86694336 C7.77003864 37.9820728 7.77003864 37.9820728 9 39 C10.34747084 39.23075082 11.70377565 39.41153063 13.0625 39.5625 C14.361875 39.706875 15.66125 39.85125 17 40 C17.04254356 41.99954746 17.04080783 44.00041636 17 46 C15.35254404 47.64745596 13.44664549 47.1709616 11.1875 47.1875 C10.31480469 47.20167969 9.44210937 47.21585938 8.54296875 47.23046875 C5.79824399 46.98171489 4.26636109 46.55843051 2 45 C-0.12613424 41.69357114 -0.23491981 39.02214117 -0.1953125 35.140625 C-0.18564453 33.46806641 -0.18564453 33.46806641 -0.17578125 31.76171875 C-0.15902344 30.60285156 -0.14226562 29.44398438 -0.125 28.25 C-0.11597656 27.07566406 -0.10695313 25.90132812 -0.09765625 24.69140625 C-0.07410063 21.79406464 -0.04120652 18.89713559 0 16 C-2.64 16 -5.28 16 -8 16 C-8 14.02 -8 12.04 -8 10 C-5.36 10 -2.72 10 0 10 C0 6.7 0 3.4 0 0 Z " transform="translate(274,117)" style="fill: #FCF4F7;"/><path d="M0 0 C2.31 0 4.62 0 7 0 C7 11.88 7 23.76 7 36 C4.69 36 2.38 36 0 36 C0 24.12 0 12.24 0 0 Z " transform="translate(388,127)" style="fill: #FCF5F7;"/><path d="M0 0 C3.3125 1.5625 3.3125 1.5625 6 4 C6.33 6.31 6.66 8.62 7 11 C0.07 11 -6.86 11 -14 11 C-13 5 -13 5 -10.5625 2.6875 C-6.71236132 0.15204282 -4.65424887 -0.44752393 0 0 Z " transform="translate(211,131)" style="fill: #CE2354;"/><path d="M0 0 C0.99 0.103125 1.98 0.20625 3 0.3125 C5 3.3125 5 3.3125 4.8125 5.875 C4 8.3125 4 8.3125 1 10.3125 C-1.6875 9.9375 -1.6875 9.9375 -4 9.3125 C-4.625 5.9375 -4.625 5.9375 -5 2.3125 C-3 0.3125 -3 0.3125 0 0 Z " transform="translate(392,108.6875)" style="fill: #FCF1F4;"/></svg>