<svg id="svg" version="1.1" xmlns="http://www.w3.org/2000/svg" style="display: block;" viewBox="0 0 199 137"><path d="M0 0 C65.67 0 131.34 0 199 0 C199 45.21 199 90.42 199 137 C133.33 137 67.66 137 0 137 C0 91.79 0 46.58 0 0 Z " transform="translate(0,0)" fill="none"/><path d="M0 0 C1.13945068 0.0211084 2.27890137 0.0422168 3.45288086 0.06396484 C16.0456669 0.45969975 27.27305571 2.42825557 37.25 10.625 C38.32894531 11.48158203 38.32894531 11.48158203 39.4296875 12.35546875 C44.43378442 16.50721949 49.21264358 20.88218328 50.25 27.625 C45.67947934 31.79808408 39.82851384 33.36218432 33.80078125 33.9765625 C29.41766575 33.54259067 27.95434182 32.26709165 24.75 29.3125 C17.6173652 22.79872616 11.53987946 21.09718647 2.125 21.125 C1.24457031 21.09664062 0.36414062 21.06828125 -0.54296875 21.0390625 C-5.12304949 21.02524627 -7.10335883 21.11562537 -10.8046875 24.03125 C-13.63924547 27.81066062 -14.22486983 29.87630172 -13.75 34.625 C-8.96844363 41.69338768 2.54441813 43.81941717 10.25 46.1875 C42.75155949 56.3105686 42.75155949 56.3105686 51.125 68.3125 C54.63967222 75.537104 54.36363257 85.00915244 52 92.5625 C47.71049872 103.36495966 39.45637886 108.87375467 29.25 113.625 C28.26 114.285 27.27 114.945 26.25 115.625 C7.62288951 118.76619908 -10.7287767 117.11424994 -26.75 106.625 C-34.60309492 100.55394491 -42.06388775 92.63844211 -43.75 82.625 C-42.16800369 81.97589846 -40.58434276 81.33085306 -39 80.6875 C-37.67742188 80.14802734 -37.67742188 80.14802734 -36.328125 79.59765625 C-31.56854543 77.80199669 -26.84881669 76.74448146 -21.75 77.625 C-19.10472883 79.68960189 -17.2646978 81.96696864 -15.20703125 84.59765625 C-10.43055775 90.44528399 -6.33369854 94.00970584 1.38134766 94.85986328 C3.86098101 95.04186867 6.32684844 95.13398347 8.8125 95.1875 C10.0176123 95.22810547 10.0176123 95.22810547 11.24707031 95.26953125 C17.32802667 95.22963978 21.58950219 93.57327164 26.25 89.625 C28.39291019 86.41063471 28.55025791 84.45073391 28.7109375 80.66015625 C28.01517714 77.58819738 26.72545971 76.56248579 24.25 74.625 C21.62840265 73.38143099 18.93241939 72.43391497 16.1875 71.5 C8.57636278 68.84257519 8.57636278 68.84257519 5.25 66.625 C3.31684119 66.16711249 3.31684119 66.16711249 1.125 65.875 C-13.0126655 63.13002261 -24.89218408 58.4230999 -34.75 47.625 C-38.17898897 42.47782946 -38.29913506 37.74640101 -38.3125 31.75 C-38.34923828 30.89019531 -38.38597656 30.03039062 -38.42382812 29.14453125 C-38.47068899 22.28201734 -36.38149967 18.58235221 -31.75 13.625 C-30.78513672 12.58472656 -30.78513672 12.58472656 -29.80078125 11.5234375 C-20.56018158 3.42493442 -12.37296828 -0.40110725 0 0 Z " transform="translate(47.75,9.375)" style="fill: #000000;"/><path d="M0 0 C7.26 0 14.52 0 22 0 C22.03738281 3.03703125 22.07476562 6.0740625 22.11328125 9.203125 C22.15964424 12.18203464 22.21082391 15.16082592 22.26245117 18.13964844 C22.29547015 20.19165708 22.32357177 22.24375152 22.34643555 24.29589844 C21.4821014 42.0893562 21.4821014 42.0893562 27.72216797 57.85864258 C32.1144497 61.29610668 36.95232343 61.70329791 42.38671875 61.41015625 C47.30102983 60.63885182 50.41173389 59.01842152 53.5 55.09375 C56.68397352 50.24542669 58.0527279 46.21525774 58.29711914 40.41503906 C58.33708511 39.51440735 58.37705109 38.61377563 58.41822815 37.68585205 C58.47610756 36.24033966 58.47610756 36.24033966 58.53515625 34.765625 C58.57813339 33.77246277 58.62111053 32.77930054 58.66539001 31.75604248 C58.80161544 28.58751223 58.93212833 25.41877598 59.0625 22.25 C59.15392044 20.10024438 59.24571285 17.95050453 59.33789062 15.80078125 C59.56360794 10.53404378 59.7815991 5.26706631 60 0 C66.93 0 73.86 0 81 0 C81 27.06 81 54.12 81 82 C73.41 82 65.82 82 58 82 C58 79.36 58 76.72 58 74 C57.34773438 74.47050781 56.69546875 74.94101563 56.0234375 75.42578125 C54.71246094 76.35970703 54.71246094 76.35970703 53.375 77.3125 C52.51648438 77.92738281 51.65796875 78.54226562 50.7734375 79.17578125 C42.76325732 84.44444906 36.27691212 84.4924051 27 84 C26.15695313 83.97679688 25.31390625 83.95359375 24.4453125 83.9296875 C16.64257938 83.04366286 10.95634481 76.61009581 6 71 C4.31243941 68.19709764 3.75998659 66.25708537 3 63 C2.63242303 61.6854018 2.25771603 60.37277085 1.875 59.0625 C1.58625 58.051875 1.2975 57.04125 1 56 C0.67 55.67 0.34 55.34 0 55 C-0.0935919 53.28134591 -0.11744611 51.55884256 -0.11352539 49.83764648 C-0.11344986 48.73658066 -0.11337433 47.63551483 -0.11329651 46.50108337 C-0.10813522 45.3031868 -0.10297394 44.10529022 -0.09765625 42.87109375 C-0.0962413 41.65172623 -0.09482635 40.4323587 -0.09336853 39.17604065 C-0.08774967 35.2631693 -0.07519396 31.35035419 -0.0625 27.4375 C-0.05748743 24.79231853 -0.0529241 22.14713617 -0.04882812 19.50195312 C-0.03777411 13.00128026 -0.02049683 6.50064968 0 0 Z " transform="translate(112,43)" style="fill: #000000;"/></svg>