<?xml version="1.0" standalone="no"?>
<!DOCTYPE svg PUBLIC "-//W3C//DTD SVG 20010904//EN"
 "http://www.w3.org/TR/2001/REC-SVG-20010904/DTD/svg10.dtd">
<svg version="1.0" xmlns="http://www.w3.org/2000/svg"
 width="255.000000pt" height="227.000000pt" viewBox="0 0 255.000000 227.000000"
 preserveAspectRatio="xMidYMid meet">

<g transform="translate(0.000000,227.000000) scale(0.100000,-0.100000)"
fill="#000000" stroke="none">
<path d="M365 1963 c-12 -12 -15 -26 -11 -52 4 -29 -19 -105 -118 -391 -105
-301 -122 -358 -112 -375 17 -28 90 -63 161 -76 78 -15 229 -6 280 15 48 20
85 53 85 76 0 12 -151 527 -206 702 -4 14 14 8 83 -25 83 -40 93 -42 178 -42
50 0 107 4 129 8 l38 8 -4 -153 c-4 -120 -8 -160 -22 -186 -16 -30 -17 -35 -2
-57 20 -31 20 -54 -1 -77 -15 -16 -15 -20 -1 -35 14 -16 15 -47 8 -258 -5
-132 -9 -241 -9 -242 -1 -2 -72 -3 -159 -3 -156 0 -159 0 -182 -25 l-23 -25
416 0 c229 0 417 2 417 5 0 2 -10 13 -22 25 -20 18 -35 20 -179 20 l-156 0 -7
118 c-12 236 -11 369 3 386 12 14 11 19 -3 34 -20 23 -20 37 1 73 17 29 17 31
0 61 -14 24 -19 64 -24 181 l-6 149 54 -30 c104 -58 203 -74 319 -52 29 6 55
8 57 6 3 -2 -45 -167 -105 -365 -90 -300 -107 -365 -98 -384 17 -34 93 -66
189 -78 l88 -12 -3 -111 -3 -111 -40 0 c-33 0 -40 4 -45 25 l-6 25 -409 3
c-226 1 -420 0 -432 -3 -13 -3 -23 -14 -25 -28 -3 -20 -9 -22 -86 -25 l-83 -3
-17 -37 c-13 -29 -16 -71 -17 -202 0 -145 2 -170 20 -205 l20 -40 1060 -3
c583 -1 1070 0 1083 3 20 5 23 10 16 38 -8 38 -23 64 -44 74 -8 4 -84 10 -168
13 l-154 5 127 54 c70 30 129 60 132 68 8 21 -18 95 -43 120 l-22 22 -158 -68
c-144 -61 -159 -70 -162 -93 -2 -15 4 -40 12 -57 9 -16 16 -35 16 -41 0 -6
-43 -10 -120 -10 l-120 0 0 64 0 63 91 39 c85 35 92 37 104 21 12 -16 24 -13
160 45 l147 63 -2 445 c0 244 -4 448 -8 452 -4 4 -176 9 -381 10 l-373 3 -34
110 c-21 69 -29 114 -23 119 34 35 -20 99 -66 78 -14 -7 -25 -18 -25 -27 0
-21 -41 -29 -124 -22 -106 8 -181 40 -243 104 -58 59 -89 67 -123 33 -11 -11
-49 -28 -83 -37 -51 -13 -74 -14 -134 -5 -91 15 -183 54 -183 79 0 42 -54 58
-85 26z m140 -420 c54 -181 100 -336 103 -345 4 -17 -11 -18 -222 -18 -124 0
-226 3 -226 6 0 17 234 684 240 684 3 0 50 -147 105 -327z m915 68 c35 -114
34 -111 15 -111 -13 0 -15 -33 -15 -240 l0 -240 -120 0 c-66 0 -120 3 -120 7
0 11 203 683 206 683 2 0 17 -44 34 -99z m99 -327 c28 -94 51 -176 51 -182 0
-7 -11 -12 -25 -12 -22 0 -25 -4 -25 -35 0 -33 -2 -35 -35 -35 l-35 0 0 227
c0 136 4 223 9 218 5 -6 32 -87 60 -181z m696 173 c3 -6 4 -176 3 -377 l-3
-365 -19 43 c-10 23 -22 42 -26 42 -13 0 -294 -120 -300 -128 -3 -5 -74 -9
-157 -10 l-153 -1 0 133 c0 131 0 133 24 144 41 18 60 56 48 92 l-11 30 245 0
244 0 0 -32 c0 -33 -1 -33 -146 -93 -167 -68 -184 -78 -183 -108 0 -32 42
-111 60 -115 8 -1 86 27 172 64 173 73 173 73 142 147 -8 20 -15 66 -15 102
l0 65 -265 0 c-146 0 -265 1 -265 3 0 2 -25 86 -55 187 -30 101 -55 185 -55
187 0 2 160 3 355 3 276 0 357 -3 360 -13z m-622 -417 c4 -15 0 -20 -14 -20
-12 0 -19 7 -19 20 0 11 6 20 14 20 7 0 16 -9 19 -20z m-73 -256 l0 -125 -32
3 -33 3 -3 117 -3 117 28 4 c15 2 31 5 36 6 4 0 7 -56 7 -125z m-1068 -191
c-9 -50 -9 -309 0 -350 l7 -33 -74 0 c-40 0 -77 5 -80 10 -18 29 -28 206 -16
297 6 53 14 100 17 104 3 5 38 9 79 9 l74 0 -7 -37z m540 5 c-4 -18 -7 -98 -7
-178 0 -80 3 -160 7 -177 l7 -33 -184 0 -185 0 -11 28 c-25 65 -20 340 7 384
3 4 88 8 189 8 l185 0 -8 -32z m741 7 c-3 -13 -10 -28 -17 -33 -13 -10 -562
-242 -572 -242 -11 0 2 242 15 273 l11 27 283 0 284 0 -4 -25z m82 5 c-52 -24
-54 -24 -48 0 4 16 13 20 47 19 l41 0 -40 -19z m-111 -360 l-18 -40 -220 0
c-120 0 -217 2 -215 4 2 3 105 47 229 99 l225 95 8 -59 c7 -47 5 -66 -9 -99z"/>
<path d="M1582 1333 l3 -68 255 0 255 0 0 65 0 65 -258 3 -258 2 3 -67z m488
-3 l0 -30 -230 0 -230 0 0 30 0 30 230 0 230 0 0 -30z"/>
<path d="M1610 1185 c0 -13 31 -15 231 -15 180 0 230 3 227 13 -4 9 -61 13
-231 15 -198 2 -227 0 -227 -13z"/>
</g>
</svg>
